

Complete name                            : One.for.the.Money.2012.RC.BD.Rip.Ac3.Xvid.ANALOG\O.F.T.M.RC.BDR.ANALOG.avi
Format                                   : AVI
Format/Info                              : Audio Video Interleave
File size                                : 1.44 GiB
Duration                                 : 1h 31mn
Overall bit rate                         : 2 260 Kbps
Movie name                               : O.F.T.M.RC.BDR.ANALOG
Writing application                      : VirtualDub build 32842/release
Copyright                                : ANALOG

Video
ID                                       : 0
Format                                   : MPEG-4 Visual
Format profile                           : Advanced Simple@L5
Format settings, BVOP                    : 1
Format settings, QPel                    : No
Format settings, GMC                     : No warppoints
Format settings, Matrix                  : Default (H.263)
Muxing mode                              : Packed bitstream
Codec ID                                 : XVID
Codec ID/Hint                            : XviD
Duration                                 : 1h 31mn
Bit rate                                 : 1 803 Kbps
Width                                    : 720 pixels
Height                                   : 304 pixels
Display aspect ratio                     : 2.35:1
Frame rate                               : 23.976 fps
Color space                              : YUV
Chroma subsampling                       : 4:2:0
Bit depth                                : 8 bits
Scan type                                : Progressive
Compression mode                         : Lossy
Bits/(Pixel*Frame)                       : 0.344
Stream size                              : 1.15 GiB (80%)
Writing library                          : XviD 64

Audio
ID                                       : 1
Format                                   : AC-3
Format/Info                              : Audio Coding 3
Mode extension                           : CM (complete main)
Codec ID                                 : 2000
Duration                                 : 1h 31mn
Bit rate mode                            : Constant
Bit rate                                 : 448 Kbps
Channel(s)                               : 6 channels
Channel positions                        : Front: L C R, Side: L R, LFE
Sampling rate                            : 48.0 KHz
Bit depth                                : 16 bits
Compression mode                         : Lossy
Stream size                              : 293 MiB (20%)
Alignment                                : Aligned on interleaves
Interleave, duration                     : 42 ms (1.00 video frame)
Interleave, preload duration             : 512 ms
Language                                 : English(studio audio DTS mixed to ac3)
Sample                                   : Yes
Source                                   : RC.BD.25 THANX

As humans, we perceive the world in analog. Everything we see and hear is a continuous transmission of information to our senses.
analog.p.2.p@hushmail.com
GREATINGS TO ALL THE PLACES I LURK!!

